HIERARCHY
ROOT Hips
{
	OFFSET 0.000000 0.000000 0.000000
	CHANNELS 6 Xposition Yposition Zposition Zrotation Yrotation Xrotation 
	JOINT LHipJoint
	{
		OFFSET 0.000000 0.000000 0.000000
		CHANNELS 3 Zrotation Yrotation Xrotation
		JOINT LeftUpLeg
		{
			OFFSET 1.363060 -1.794630 0.839290
			CHANNELS 3 Zrotation Yrotation Xrotation
			JOINT LeftLeg
			{
				OFFSET 2.448110 -6.726130 0.000000
				CHANNELS 3 Zrotation Yrotation Xrotation
				JOINT LeftFoot
				{
					OFFSET 2.562200 -7.039590 0.000000
					CHANNELS 3 Zrotation Yrotation Xrotation
					JOINT LeftToeBase
					{
						OFFSET 0.157640 -0.433110 2.322550
						CHANNELS 3 Zrotation Yrotation Xrotation
						End Site
						{
							OFFSET 0.000000 0.000000 0.000000
						}
					}
				}
			}
		}
	}
	JOINT RHipJoint
	{
		OFFSET 0.000000 0.000000 0.000000
		CHANNELS 3 Zrotation Yrotation Xrotation
		JOINT RightUpLeg
		{
			OFFSET -1.305520 -1.794630 0.839290
			CHANNELS 3 Zrotation Yrotation Xrotation
			JOINT RightLeg
			{
				OFFSET -2.542530 -6.985550 0.000000
				CHANNELS 3 Zrotation Yrotation Xrotation
				JOINT RightFoot
				{
					OFFSET -2.568260 -7.056230 0.000000
					CHANNELS 3 Zrotation Yrotation Xrotation
					JOINT RightToeBase
					{
						OFFSET -0.164730 -0.452590 2.363150
						CHANNELS 3 Zrotation Yrotation Xrotation
						End Site
						{
							OFFSET 0.000000 0.000000 0.000000
						}
					}
				}
			}
		}
	}
	JOINT LowerBack
	{
		OFFSET 0.000000 0.000000 0.000000
		CHANNELS 3 Zrotation Yrotation Xrotation
		JOINT Spine
		{
			OFFSET 0.028270 2.035590 -0.193380
			CHANNELS 3 Zrotation Yrotation Xrotation
			JOINT Spine1
			{
				OFFSET 0.056720 2.048850 -0.042750
				CHANNELS 3 Zrotation Yrotation Xrotation
				JOINT Neck
				{
					OFFSET 0.000000 0.000000 0.000000
					CHANNELS 3 Zrotation Yrotation Xrotation
					JOINT Neck1
					{
						OFFSET -0.054170 1.746240 0.172020
						CHANNELS 3 Zrotation Yrotation Xrotation
						JOINT Head
						{
							OFFSET 0.104070 1.761360 -0.123970
							CHANNELS 3 Zrotation Yrotation Xrotation
							End Site
							{
								OFFSET 0.000000 0.000000 0.000000
							}
						}
					}
				}
				JOINT LeftShoulder
				{
					OFFSET 0.000000 0.000000 0.000000
					CHANNELS 3 Zrotation Yrotation Xrotation
					JOINT LeftArm
					{
						OFFSET 3.362410 1.200890 -0.311210
						CHANNELS 3 Zrotation Yrotation Xrotation
						JOINT LeftForeArm
						{
							OFFSET 4.983000 -0.000000 -0.000000
							CHANNELS 3 Zrotation Yrotation Xrotation
							JOINT LeftHand
							{
								OFFSET 3.483560 -0.000000 -0.000000
								CHANNELS 3 Zrotation Yrotation Xrotation
								JOINT LeftFingerBase
								{
									OFFSET 0.000000 0.000000 0.000000
									CHANNELS 3 Zrotation Yrotation Xrotation
									JOINT LeftHandIndex1
									{
										OFFSET 0.715260 -0.000000 -0.000000
										CHANNELS 3 Zrotation Yrotation Xrotation
										End Site
										{
											OFFSET 0.000000 0.000000 0.000000
										}
									}
								}
								JOINT LThumb
								{
									OFFSET 0.000000 0.000000 0.000000
									CHANNELS 3 Zrotation Yrotation Xrotation
									End Site
									{
										OFFSET 0.000000 0.000000 0.000000
									}
								}
							}
						}
					}
				}
				JOINT RightShoulder
				{
					OFFSET 0.000000 0.000000 0.000000
					CHANNELS 3 Zrotation Yrotation Xrotation
					JOINT RightArm
					{
						OFFSET -3.136600 1.374050 -0.404650
						CHANNELS 3 Zrotation Yrotation Xrotation
						JOINT RightForeArm
						{
							OFFSET -5.241900 -0.000000 -0.000000
							CHANNELS 3 Zrotation Yrotation Xrotation
							JOINT RightHand
							{
								OFFSET -3.444170 -0.000000 -0.000000
								CHANNELS 3 Zrotation Yrotation Xrotation
								JOINT RightFingerBase
								{
									OFFSET 0.000000 0.000000 0.000000
									CHANNELS 3 Zrotation Yrotation Xrotation
									JOINT RightHandIndex1
									{
										OFFSET -0.622530 -0.000000 -0.000000
										CHANNELS 3 Zrotation Yrotation Xrotation
										End Site
										{
											OFFSET 0.000000 0.000000 0.000000
										}
									}
								}
								JOINT RThumb
								{
									OFFSET 0.000000 0.000000 0.000000
									CHANNELS 3 Zrotation Yrotation Xrotation
									End Site
									{
										OFFSET 0.000000 0.000000 0.000000
									}
								}
							}
						}
					}
				}
			}
		}
	}
}
MOTION
Frames: 10
Frame Time: 0.008333
-0.524322 17.927716 -1.206023 -123.888730 80.103809 -130.457427 -2.169255 3.188924 3.024481 -1.662099 -9.558029 -2.828253 -0.318555 9.551367 27.315360 8.728849 -17.084256 2.761668 0.025100 1.021900 2.808900 3.290149 -3.010363 2.653069 16.947868 12.606158 0.835414 2.905970 -6.050954 18.264921 -2.974119 7.380665 6.192003 -0.038400 1.264900 -3.478000 -2.438648 3.517608 9.907977 -0.101634 4.454264 5.712376 -2.490000 2.967492 -0.376865 1.462252 -0.992221 -1.078629 11.807668 -2.540691 2.163107 0.926500 -1.350800 0.004500 -1.071457 -5.784900 0.654211 -75.636614 22.465382 16.659203 21.645109 -33.314109 -8.966647 0.670399 -1.696957 2.103249 -2.627248 8.657949 -0.602500 -7.125000 0.000000 0.000000 -25.918700 38.911000 4.228400 1.685349 5.905196 2.031674 78.849948 -9.349853 30.094755 -27.249404 34.632042 -8.994113 0.689131 0.243826 3.971801 -3.071359 -14.257235 0.940500 7.125000 0.000000 0.000000 21.511200 -43.444000 0.869000 
-0.541305 17.939244 -1.201803 -124.183179 80.290027 -130.473651 -2.234870 3.132613 3.004613 -1.761686 -9.579159 -3.029496 -0.378446 9.494861 27.146392 8.668284 -16.882840 2.956940 0.024400 1.007500 2.769400 3.330571 -2.969659 2.617914 16.680487 12.841041 0.547618 2.912278 -6.068011 18.268279 -2.970013 7.283191 6.292479 -0.039000 1.275100 -3.506100 -2.401178 3.512099 10.087318 -0.086053 4.455652 5.787230 -2.491225 2.974525 -0.358096 1.521633 -0.988003 -1.072004 11.622289 -2.525403 2.035770 0.871000 -1.355200 -0.036600 -1.081869 -5.784205 0.652406 -75.623492 22.429096 16.563361 21.505843 -33.174877 -8.878329 0.668176 -1.695493 2.323966 -2.651098 8.656702 -0.607200 -7.125000 0.000000 0.000000 -25.939200 38.903800 4.237400 1.689631 5.904569 2.035757 78.762924 -9.285090 30.018021 -27.341495 34.709404 -9.053252 0.695640 0.228335 3.780200 -3.442729 -14.312126 1.038800 7.125000 0.000000 0.000000 21.197000 -43.518600 0.813900 
-0.558083 17.950875 -1.197171 -124.497193 80.483229 -130.505053 -2.301047 3.075882 2.985099 -1.864217 -9.595337 -3.231575 -0.439765 9.435312 26.969679 8.605922 -16.677558 3.155228 0.023600 0.991600 2.725700 3.370531 -2.928850 2.581560 16.406436 13.077781 0.258202 2.917781 -6.085039 18.271658 -2.965270 7.182274 6.388175 -0.040100 1.292400 -3.553800 -2.358493 3.508484 10.269966 -0.071318 4.460492 5.861659 -2.496010 2.983431 -0.339967 1.578421 -0.987993 -1.062823 11.432320 -2.515478 1.902067 0.815200 -1.362600 -0.079800 -1.091285 -5.783654 0.651079 -75.600471 22.394685 16.494715 21.402771 -33.071353 -8.813141 0.666189 -1.693841 2.496253 -2.656948 8.636403 -0.607400 -7.125000 0.000000 0.000000 -25.937800 38.881200 4.253000 1.693511 5.903762 2.039716 78.675685 -9.230017 29.953768 -27.429358 34.783378 -9.109772 0.701657 0.213367 3.610915 -3.799531 -14.359790 1.133300 7.125000 0.000000 0.000000 20.892800 -43.586000 0.764600 
-0.574654 17.962609 -1.192127 -124.836673 80.682548 -130.557818 -2.368037 3.018345 2.965579 -1.969804 -9.609899 -3.434822 -0.502650 9.372851 26.785406 8.541021 -16.465845 3.355984 0.022800 0.974200 2.677800 3.410141 -2.887389 2.543854 16.124938 13.312960 -0.036639 2.922335 -6.102367 18.276298 -2.960024 7.078554 6.480540 -0.041500 1.314300 -3.614200 -2.311463 3.505462 10.456910 -0.056394 4.466558 5.935393 -2.502211 2.993170 -0.323050 1.633102 -0.988743 -1.049183 11.233353 -2.506386 1.754185 0.758100 -1.371500 -0.127700 -1.099483 -5.783562 0.650124 -75.572991 22.363994 16.449994 21.338421 -33.006413 -8.772983 0.664888 -1.691665 2.615107 -2.652490 8.586538 -0.603900 -7.125000 0.000000 0.000000 -25.917600 38.833200 4.282700 1.696832 5.902425 2.043567 78.585778 -9.181280 29.897733 -27.515881 34.856834 -9.166046 0.707473 0.200454 3.451473 -4.121797 -14.412468 1.220000 7.125000 0.000000 0.000000 20.620700 -43.656200 0.716200 
-0.591020 17.974446 -1.186672 -125.207637 80.884648 -130.636979 -2.435590 2.960118 2.945926 -2.077289 -9.626620 -3.637924 -0.566785 9.307891 26.594188 8.473891 -16.248351 3.557889 0.021900 0.955800 2.627200 3.449208 -2.845211 2.504987 15.838327 13.543064 -0.336917 2.925762 -6.120200 18.282872 -2.954764 6.974214 6.570413 -0.043100 1.339800 -3.684200 -2.255612 3.503955 10.647259 -0.042245 4.475710 6.007690 -2.513577 3.004700 -0.307564 1.691585 -0.994879 -1.031586 11.025990 -2.503775 1.600323 0.698700 -1.384000 -0.178100 -1.106831 -5.783520 0.649741 -75.534187 22.334219 16.436692 21.308965 -32.976453 -8.755071 0.663952 -1.689757 2.675516 -2.634358 8.530044 -0.597300 -7.125000 0.000000 0.000000 -25.883300 38.781200 4.312300 1.699709 5.901173 2.047386 78.496193 -9.142865 29.851364 -27.597151 34.926252 -9.219202 0.712661 0.189103 3.306346 -4.412616 -14.460102 1.298600 7.125000 0.000000 0.000000 20.375000 -43.720200 0.673200 
-0.607283 17.986488 -1.180805 -125.628860 81.092124 -130.759656 -2.504658 2.900319 2.925561 -2.189004 -9.648439 -3.842052 -0.632638 9.240207 26.396062 8.404230 -16.025720 3.764961 0.021200 0.940200 2.584300 3.487872 -2.802354 2.464782 15.542986 13.772522 -0.643527 2.928097 -6.138794 18.291386 -2.947744 6.862427 6.659196 -0.045100 1.370400 -3.768600 -2.203797 3.500850 10.839058 -0.023660 4.482855 6.080920 -2.516122 3.014980 -0.291151 1.740593 -0.999720 -1.014631 10.810495 -2.499693 1.434673 0.639100 -1.396400 -0.231700 -1.112938 -5.784233 0.649320 -75.503928 22.302037 16.436242 21.313069 -32.979248 -8.757970 0.663560 -1.687730 2.682412 -2.609032 8.462482 -0.588800 -7.125000 0.000000 0.000000 -25.839100 38.720600 4.345900 1.702832 5.899233 2.051260 78.391737 -9.107173 29.823634 -27.672784 34.991143 -9.269180 0.717408 0.180055 3.172491 -4.666813 -14.509454 1.368400 7.125000 0.000000 0.000000 20.162700 -43.784100 0.632200 
-0.623340 17.998531 -1.174424 -126.097438 81.299795 -130.925969 -2.574168 2.839695 2.904863 -2.300787 -9.676966 -4.046037 -0.699831 9.169961 26.191423 8.333423 -15.801793 3.976229 0.020700 0.928500 2.552100 3.526006 -2.758613 2.423152 15.244848 13.998132 -0.955296 2.928969 -6.158251 18.302825 -2.938972 6.744461 6.744957 -0.047500 1.406900 -3.869100 -2.142187 3.497053 11.037497 -0.006629 4.490131 6.151190 -2.525613 3.025471 -0.279721 1.787646 -1.008998 -0.999991 10.595081 -2.501933 1.271688 0.579900 -1.411400 -0.284300 -1.118070 -5.784702 0.649408 -75.461829 22.271499 16.464113 21.349344 -33.014668 -8.781817 0.663988 -1.685983 2.635059 -2.583233 8.386466 -0.579700 -7.125000 0.000000 0.000000 -25.791500 38.653400 4.383300 1.705519 5.897673 2.054963 78.290685 -9.079985 29.806279 -27.741278 35.050338 -9.314697 0.721609 0.172984 3.048293 -4.882146 -14.556650 1.428500 7.125000 0.000000 0.000000 19.984400 -43.844000 0.595300 
-0.639191 18.010677 -1.167630 -126.615446 81.503749 -131.137086 -2.643898 2.778473 2.883778 -2.409668 -9.716237 -4.249583 -0.768153 9.097348 25.980511 8.261641 -15.576035 4.192769 0.020300 0.921000 2.531400 3.563555 -2.713956 2.379594 14.948037 14.223277 -1.269725 2.928430 -6.178774 18.317561 -2.926542 6.614656 6.825484 -0.050200 1.446600 -3.978500 -2.082194 3.489878 11.235900 0.019893 4.493661 6.223446 -2.521266 3.033397 -0.266356 1.817201 -1.017358 -0.994669 10.379660 -2.504228 1.112270 0.523000 -1.425800 -0.334500 -1.121780 -5.785679 0.649213 -75.436814 22.232789 16.501670 21.415548 -33.078061 -8.823444 0.664640 -1.684535 2.541723 -2.549425 8.316560 -0.569400 -7.125000 0.000000 0.000000 -25.739000 38.593000 4.414700 1.709257 5.895955 2.058794 78.168373 -9.052579 29.815826 -27.793534 35.095533 -9.350327 0.724809 0.166578 2.952980 -5.081150 -14.587411 1.482900 7.125000 0.000000 0.000000 19.815700 -43.887500 0.567600 
-0.654733 18.022822 -1.160219 -127.185775 81.705239 -131.397916 -2.713940 2.716448 2.862011 -2.517206 -9.765183 -4.452783 -0.836955 9.023253 25.765959 8.188554 -15.348456 4.413272 0.020200 0.918100 2.523600 3.600470 -2.668709 2.334641 14.650775 14.447960 -1.586205 2.926873 -6.199604 18.333790 -2.911578 6.477116 6.904761 -0.053000 1.485800 -4.086700 -2.015603 3.481390 11.435824 0.048781 4.496759 6.295974 -2.516813 3.041157 -0.252361 1.840174 -1.028317 -0.999695 10.165886 -2.510630 0.959562 0.467400 -1.441300 -0.381200 -1.124675 -5.786816 0.649452 -75.407340 22.183802 16.564718 21.508019 -33.166628 -8.881752 0.665956 -1.683652 2.409305 -2.520448 8.251122 -0.560300 -7.125000 0.000000 0.000000 -25.692100 38.537200 4.443900 1.713356 5.894898 2.062411 78.044175 -9.028561 29.836947 -27.831682 35.128887 -9.377150 0.727145 0.161026 2.890570 -5.252597 -14.606046 1.529000 7.125000 0.000000 0.000000 19.667900 -43.917700 0.547700 
-0.669967 18.035174 -1.152500 -127.818413 81.899136 -131.716642 -2.784051 2.653810 2.839507 -2.620645 -9.827967 -4.655124 -0.906150 8.947790 25.548378 8.113188 -15.115019 4.638645 0.020200 0.917300 2.521300 3.636727 -2.622940 2.288175 14.357149 14.673009 -1.902897 2.924097 -6.220764 18.351766 -2.892357 6.327109 6.979339 -0.055800 1.524400 -4.193000 -1.940331 3.468843 11.640383 0.081763 4.496030 6.367275 -2.511375 3.046796 -0.241584 1.852991 -1.042002 -1.015915 9.959619 -2.521847 0.820818 0.414600 -1.457600 -0.422200 -1.126427 -5.787819 0.649893 -75.379356 22.128371 16.651698 21.628383 -33.281089 -8.956579 0.667127 -1.684038 2.241074 -2.480122 8.216257 -0.550900 -7.125000 0.000000 0.000000 -25.646100 38.511800 4.452100 1.717903 5.894577 2.065936 77.914592 -9.006628 29.872550 -27.853461 35.148335 -9.393925 0.728588 0.156748 2.857904 -5.390816 -14.613345 1.565300 7.125000 0.000000 0.000000 19.546600 -43.935200 0.535200 
